<?xml version="1.0" encoding="UTF-8"?>
<!DOCTYPE svg PUBLIC "-//W3C//DTD SVG 1.1//EN"
    "http://www.w3.org/Graphics/SVG/1.1/DTD/svg11.dtd">
<svg xmlns="http://www.w3.org/2000/svg" height="600.0000" stroke-opacity="1" viewBox="0 0 600 600" font-size="1" width="600.0000" xmlns:xlink="http://www.w3.org/1999/xlink" stroke="rgb(0,0,0)" version="1.1">
  <defs>
  </defs>
  <g stroke-linejoin="miter" stroke-opacity="1.0" fill-opacity="0.0" stroke="rgb(0,0,0)" stroke-width="0.5" fill="rgb(0,0,0)" stroke-linecap="butt" stroke-miterlimit="10.0">
    <path d="M 600.0000,300.0000 c 0.0000,-165.6854 -134.3146,-300.0000 -300.0000 -300.0000c -165.6854,-0.0000 -300.0000,134.3146 -300.0000 300.0000c -0.0000,165.6854 134.3146,300.0000 300.0000 300.0000c 165.6854,0.0000 300.0000,-134.3146 300.0000 -300.0000Z"/>
  </g>
  <g stroke-linejoin="miter" stroke-opacity="1.0" fill-opacity="0.0" stroke="rgb(0,0,0)" stroke-width="0.5" fill="rgb(0,0,0)" stroke-linecap="butt" stroke-miterlimit="10.0">
    <path d="M 413.8276,410.9545 c 28.2282,38.8528 82.6082,47.4658 121.4611 19.2375c 7.3821,-5.3634 13.8741,-11.8554 19.2375 -19.2375"/>
  </g>
  <g stroke-linejoin="miter" stroke-opacity="1.0" fill-opacity="0.0" stroke="rgb(0,0,0)" stroke-width="0.5" fill="rgb(0,0,0)" stroke-linecap="butt" stroke-miterlimit="10.0">
    <path d="M 484.1769,359.8427 c -28.2282,38.8528 -19.6153,93.2328 19.2375 121.4611c 7.3821,5.3634 15.5625,9.5315 24.2407 12.3513"/>
  </g>
  <g stroke-linejoin="miter" stroke-opacity="1.0" fill-opacity="0.0" stroke="rgb(0,0,0)" stroke-width="0.5" fill="rgb(0,0,0)" stroke-linecap="butt" stroke-miterlimit="10.0">
    <path d="M 554.5262,410.9545 c -45.6743,-14.8405 -94.7311,10.1553 -109.5716 55.8295c -2.8197,8.6782 -4.2560,17.7462 -4.2560 26.8710"/>
  </g>
  <g stroke-linejoin="miter" stroke-opacity="1.0" fill-opacity="0.0" stroke="rgb(0,0,0)" stroke-width="0.5" fill="rgb(0,0,0)" stroke-linecap="butt" stroke-miterlimit="10.0">
    <path d="M 527.6551,493.6550 c 0.0000,-48.0248 -38.9318,-86.9565 -86.9565 -86.9565c -9.1248,-0.0000 -18.1928,1.4362 -26.8710 4.2560"/>
  </g>
  <g stroke-linejoin="miter" stroke-opacity="1.0" fill-opacity="0.0" stroke="rgb(0,0,0)" stroke-width="0.5" fill="rgb(0,0,0)" stroke-linecap="butt" stroke-miterlimit="10.0">
    <path d="M 440.6986,493.6550 c 45.6743,-14.8405 70.6700,-63.8973 55.8295 -109.5716c -2.8197,-8.6782 -6.9878,-16.8586 -12.3513 -24.2407"/>
  </g>
  <g stroke-linejoin="miter" stroke-opacity="1.0" fill-opacity="0.0" stroke="rgb(0,0,0)" stroke-width="0.5" fill="rgb(0,0,0)" stroke-linecap="butt" stroke-miterlimit="10.0">
    <path d="M 484.1769,359.8427 c 45.6743,-14.8405 70.6700,-63.8973 55.8295 -109.5716c -2.8197,-8.6782 -6.9878,-16.8586 -12.3513 -24.2407"/>
  </g>
  <g stroke-linejoin="miter" stroke-opacity="1.0" fill-opacity="0.0" stroke="rgb(0,0,0)" stroke-width="0.5" fill="rgb(0,0,0)" stroke-linecap="butt" stroke-miterlimit="10.0">
    <path d="M 457.3058,277.1421 c 28.2282,38.8528 82.6082,47.4658 121.4611 19.2375c 7.3821,-5.3634 13.8741,-11.8554 19.2375 -19.2375"/>
  </g>
  <g stroke-linejoin="miter" stroke-opacity="1.0" fill-opacity="0.0" stroke="rgb(0,0,0)" stroke-width="0.5" fill="rgb(0,0,0)" stroke-linecap="butt" stroke-miterlimit="10.0">
    <path d="M 527.6551,226.0304 c -28.2282,38.8528 -19.6153,93.2328 19.2375 121.4611c 7.3821,5.3634 15.5625,9.5315 24.2407 12.3513"/>
  </g>
  <g stroke-linejoin="miter" stroke-opacity="1.0" fill-opacity="0.0" stroke="rgb(0,0,0)" stroke-width="0.5" fill="rgb(0,0,0)" stroke-linecap="butt" stroke-miterlimit="10.0">
    <path d="M 598.0044,277.1421 c -45.6743,-14.8405 -94.7311,10.1553 -109.5716 55.8295c -2.8197,8.6782 -4.2560,17.7462 -4.2560 26.8710"/>
  </g>
  <g stroke-linejoin="miter" stroke-opacity="1.0" fill-opacity="0.0" stroke="rgb(0,0,0)" stroke-width="0.5" fill="rgb(0,0,0)" stroke-linecap="butt" stroke-miterlimit="10.0">
    <path d="M 571.1334,359.8427 c -0.0000,-48.0248 -38.9318,-86.9565 -86.9565 -86.9565c -9.1248,0.0000 -18.1928,1.4362 -26.8710 4.2560"/>
  </g>
  <g stroke-linejoin="miter" stroke-opacity="1.0" fill-opacity="0.0" stroke="rgb(0,0,0)" stroke-width="0.5" fill="rgb(0,0,0)" stroke-linecap="butt" stroke-miterlimit="10.0">
    <path d="M 343.4783,359.8427 c 45.6743,14.8405 94.7311,-10.1553 109.5716 -55.8295c 2.8197,-8.6782 4.2560,-17.7462 4.2560 -26.8710"/>
  </g>
  <g stroke-linejoin="miter" stroke-opacity="1.0" fill-opacity="0.0" stroke="rgb(0,0,0)" stroke-width="0.5" fill="rgb(0,0,0)" stroke-linecap="butt" stroke-miterlimit="10.0">
    <path d="M 370.3493,277.1421 c -0.0000,48.0248 38.9318,86.9565 86.9565 86.9565c 9.1248,0.0000 18.1928,-1.4362 26.8710 -4.2560"/>
  </g>
  <g stroke-linejoin="miter" stroke-opacity="1.0" fill-opacity="0.0" stroke="rgb(0,0,0)" stroke-width="0.5" fill="rgb(0,0,0)" stroke-linecap="butt" stroke-miterlimit="10.0">
    <path d="M 457.3058,277.1421 c -45.6743,14.8405 -70.6700,63.8973 -55.8295 109.5716c 2.8197,8.6782 6.9878,16.8586 12.3513 24.2407"/>
  </g>
  <g stroke-linejoin="miter" stroke-opacity="1.0" fill-opacity="0.0" stroke="rgb(0,0,0)" stroke-width="0.5" fill="rgb(0,0,0)" stroke-linecap="butt" stroke-miterlimit="10.0">
    <path d="M 484.1769,359.8427 c -28.2282,-38.8528 -82.6082,-47.4658 -121.4611 -19.2375c -7.3821,5.3634 -13.8741,11.8554 -19.2375 19.2375"/>
  </g>
  <g stroke-linejoin="miter" stroke-opacity="1.0" fill-opacity="0.0" stroke="rgb(0,0,0)" stroke-width="0.5" fill="rgb(0,0,0)" stroke-linecap="butt" stroke-miterlimit="10.0">
    <path d="M 413.8276,410.9545 c 28.2282,-38.8528 19.6153,-93.2328 -19.2375 -121.4611c -7.3821,-5.3634 -15.5625,-9.5315 -24.2407 -12.3513"/>
  </g>
  <g stroke-linejoin="miter" stroke-opacity="1.0" fill-opacity="0.0" stroke="rgb(0,0,0)" stroke-width="0.5" fill="rgb(0,0,0)" stroke-linecap="butt" stroke-miterlimit="10.0">
    <path d="M 440.6986,226.0304 c 45.6743,-14.8405 70.6700,-63.8973 55.8295 -109.5716c -2.8197,-8.6782 -6.9878,-16.8586 -12.3513 -24.2407"/>
  </g>
  <g stroke-linejoin="miter" stroke-opacity="1.0" fill-opacity="0.0" stroke="rgb(0,0,0)" stroke-width="0.5" fill="rgb(0,0,0)" stroke-linecap="butt" stroke-miterlimit="10.0">
    <path d="M 413.8276,143.3298 c 28.2282,38.8528 82.6082,47.4658 121.4611 19.2375c 7.3821,-5.3634 13.8741,-11.8554 19.2375 -19.2375"/>
  </g>
  <g stroke-linejoin="miter" stroke-opacity="1.0" fill-opacity="0.0" stroke="rgb(0,0,0)" stroke-width="0.5" fill="rgb(0,0,0)" stroke-linecap="butt" stroke-miterlimit="10.0">
    <path d="M 484.1769,92.2180 c -28.2282,38.8528 -19.6153,93.2328 19.2375 121.4611c 7.3821,5.3634 15.5625,9.5315 24.2407 12.3513"/>
  </g>
  <g stroke-linejoin="miter" stroke-opacity="1.0" fill-opacity="0.0" stroke="rgb(0,0,0)" stroke-width="0.5" fill="rgb(0,0,0)" stroke-linecap="butt" stroke-miterlimit="10.0">
    <path d="M 554.5262,143.3298 c -45.6743,-14.8405 -94.7311,10.1553 -109.5716 55.8295c -2.8197,8.6782 -4.2560,17.7462 -4.2560 26.8710"/>
  </g>
  <g stroke-linejoin="miter" stroke-opacity="1.0" fill-opacity="0.0" stroke="rgb(0,0,0)" stroke-width="0.5" fill="rgb(0,0,0)" stroke-linecap="butt" stroke-miterlimit="10.0">
    <path d="M 527.6551,226.0304 c -0.0000,-48.0248 -38.9318,-86.9565 -86.9565 -86.9565c -9.1248,-0.0000 -18.1928,1.4362 -26.8710 4.2560"/>
  </g>
  <g stroke-linejoin="miter" stroke-opacity="1.0" fill-opacity="0.0" stroke="rgb(0,0,0)" stroke-width="0.5" fill="rgb(0,0,0)" stroke-linecap="butt" stroke-miterlimit="10.0">
    <path d="M 413.8276,143.3298 c 0.0000,-48.0248 -38.9318,-86.9565 -86.9565 -86.9565c -9.1248,-0.0000 -18.1928,1.4362 -26.8710 4.2560"/>
  </g>
  <g stroke-linejoin="miter" stroke-opacity="1.0" fill-opacity="0.0" stroke="rgb(0,0,0)" stroke-width="0.5" fill="rgb(0,0,0)" stroke-linecap="butt" stroke-miterlimit="10.0">
    <path d="M 326.8710,143.3298 c 45.6743,-14.8405 70.6700,-63.8973 55.8295 -109.5716c -2.8197,-8.6782 -6.9878,-16.8586 -12.3513 -24.2407"/>
  </g>
  <g stroke-linejoin="miter" stroke-opacity="1.0" fill-opacity="0.0" stroke="rgb(0,0,0)" stroke-width="0.5" fill="rgb(0,0,0)" stroke-linecap="butt" stroke-miterlimit="10.0">
    <path d="M 300.0000,60.6292 c 28.2282,38.8528 82.6082,47.4658 121.4611 19.2375c 7.3821,-5.3634 13.8741,-11.8554 19.2375 -19.2375"/>
  </g>
  <g stroke-linejoin="miter" stroke-opacity="1.0" fill-opacity="0.0" stroke="rgb(0,0,0)" stroke-width="0.5" fill="rgb(0,0,0)" stroke-linecap="butt" stroke-miterlimit="10.0">
    <path d="M 370.3493,9.5175 c -28.2282,38.8528 -19.6153,93.2328 19.2375 121.4611c 7.3821,5.3634 15.5625,9.5315 24.2407 12.3513"/>
  </g>
  <g stroke-linejoin="miter" stroke-opacity="1.0" fill-opacity="0.0" stroke="rgb(0,0,0)" stroke-width="0.5" fill="rgb(0,0,0)" stroke-linecap="butt" stroke-miterlimit="10.0">
    <path d="M 440.6986,60.6292 c -45.6743,-14.8405 -94.7311,10.1553 -109.5716 55.8295c -2.8197,8.6782 -4.2560,17.7462 -4.2560 26.8710"/>
  </g>
  <g stroke-linejoin="miter" stroke-opacity="1.0" fill-opacity="0.0" stroke="rgb(0,0,0)" stroke-width="0.5" fill="rgb(0,0,0)" stroke-linecap="butt" stroke-miterlimit="10.0">
    <path d="M 370.3493,277.1421 c 28.2282,-38.8528 19.6153,-93.2328 -19.2375 -121.4611c -7.3821,-5.3634 -15.5625,-9.5315 -24.2407 -12.3513"/>
  </g>
  <g stroke-linejoin="miter" stroke-opacity="1.0" fill-opacity="0.0" stroke="rgb(0,0,0)" stroke-width="0.5" fill="rgb(0,0,0)" stroke-linecap="butt" stroke-miterlimit="10.0">
    <path d="M 300.0000,226.0304 c 45.6743,14.8405 94.7311,-10.1553 109.5716 -55.8295c 2.8197,-8.6782 4.2560,-17.7462 4.2560 -26.8710"/>
  </g>
  <g stroke-linejoin="miter" stroke-opacity="1.0" fill-opacity="0.0" stroke="rgb(0,0,0)" stroke-width="0.5" fill="rgb(0,0,0)" stroke-linecap="butt" stroke-miterlimit="10.0">
    <path d="M 326.8710,143.3298 c 0.0000,48.0248 38.9318,86.9565 86.9565 86.9565c 9.1248,-0.0000 18.1928,-1.4362 26.8710 -4.2560"/>
  </g>
  <g stroke-linejoin="miter" stroke-opacity="1.0" fill-opacity="0.0" stroke="rgb(0,0,0)" stroke-width="0.5" fill="rgb(0,0,0)" stroke-linecap="butt" stroke-miterlimit="10.0">
    <path d="M 413.8276,143.3298 c -45.6743,14.8405 -70.6700,63.8973 -55.8295 109.5716c 2.8197,8.6782 6.9878,16.8586 12.3513 24.2407"/>
  </g>
  <g stroke-linejoin="miter" stroke-opacity="1.0" fill-opacity="0.0" stroke="rgb(0,0,0)" stroke-width="0.5" fill="rgb(0,0,0)" stroke-linecap="butt" stroke-miterlimit="10.0">
    <path d="M 440.6986,226.0304 c -28.2282,-38.8528 -82.6082,-47.4658 -121.4611 -19.2375c -7.3821,5.3634 -13.8741,11.8554 -19.2375 19.2375"/>
  </g>
  <g stroke-linejoin="miter" stroke-opacity="1.0" fill-opacity="0.0" stroke="rgb(0,0,0)" stroke-width="0.5" fill="rgb(0,0,0)" stroke-linecap="butt" stroke-miterlimit="10.0">
    <path d="M 273.1290,143.3298 c 0.0000,-48.0248 -38.9318,-86.9565 -86.9565 -86.9565c -9.1248,-0.0000 -18.1928,1.4362 -26.8710 4.2560"/>
  </g>
  <g stroke-linejoin="miter" stroke-opacity="1.0" fill-opacity="0.0" stroke="rgb(0,0,0)" stroke-width="0.5" fill="rgb(0,0,0)" stroke-linecap="butt" stroke-miterlimit="10.0">
    <path d="M 186.1724,143.3298 c 45.6743,-14.8405 70.6700,-63.8973 55.8295 -109.5716c -2.8197,-8.6782 -6.9878,-16.8586 -12.3513 -24.2407"/>
  </g>
  <g stroke-linejoin="miter" stroke-opacity="1.0" fill-opacity="0.0" stroke="rgb(0,0,0)" stroke-width="0.5" fill="rgb(0,0,0)" stroke-linecap="butt" stroke-miterlimit="10.0">
    <path d="M 159.3014,60.6292 c 28.2282,38.8528 82.6082,47.4658 121.4611 19.2375c 7.3821,-5.3634 13.8741,-11.8554 19.2375 -19.2375"/>
  </g>
  <g stroke-linejoin="miter" stroke-opacity="1.0" fill-opacity="0.0" stroke="rgb(0,0,0)" stroke-width="0.5" fill="rgb(0,0,0)" stroke-linecap="butt" stroke-miterlimit="10.0">
    <path d="M 229.6507,9.5175 c -28.2282,38.8528 -19.6153,93.2328 19.2375 121.4611c 7.3821,5.3634 15.5625,9.5315 24.2407 12.3513"/>
  </g>
  <g stroke-linejoin="miter" stroke-opacity="1.0" fill-opacity="0.0" stroke="rgb(0,0,0)" stroke-width="0.5" fill="rgb(0,0,0)" stroke-linecap="butt" stroke-miterlimit="10.0">
    <path d="M 300.0000,60.6292 c -45.6743,-14.8405 -94.7311,10.1553 -109.5716 55.8295c -2.8197,8.6782 -4.2560,17.7462 -4.2560 26.8710"/>
  </g>
  <g stroke-linejoin="miter" stroke-opacity="1.0" fill-opacity="0.0" stroke="rgb(0,0,0)" stroke-width="0.5" fill="rgb(0,0,0)" stroke-linecap="butt" stroke-miterlimit="10.0">
    <path d="M 186.1724,143.3298 c -45.6743,-14.8405 -94.7311,10.1553 -109.5716 55.8295c -2.8197,8.6782 -4.2560,17.7462 -4.2560 26.8710"/>
  </g>
  <g stroke-linejoin="miter" stroke-opacity="1.0" fill-opacity="0.0" stroke="rgb(0,0,0)" stroke-width="0.5" fill="rgb(0,0,0)" stroke-linecap="butt" stroke-miterlimit="10.0">
    <path d="M 159.3014,226.0304 c 0.0000,-48.0248 -38.9318,-86.9565 -86.9565 -86.9565c -9.1248,-0.0000 -18.1928,1.4362 -26.8710 4.2560"/>
  </g>
  <g stroke-linejoin="miter" stroke-opacity="1.0" fill-opacity="0.0" stroke="rgb(0,0,0)" stroke-width="0.5" fill="rgb(0,0,0)" stroke-linecap="butt" stroke-miterlimit="10.0">
    <path d="M 72.3449,226.0304 c 45.6743,-14.8405 70.6700,-63.8973 55.8295 -109.5716c -2.8197,-8.6782 -6.9878,-16.8586 -12.3513 -24.2407"/>
  </g>
  <g stroke-linejoin="miter" stroke-opacity="1.0" fill-opacity="0.0" stroke="rgb(0,0,0)" stroke-width="0.5" fill="rgb(0,0,0)" stroke-linecap="butt" stroke-miterlimit="10.0">
    <path d="M 45.4738,143.3298 c 28.2282,38.8528 82.6082,47.4658 121.4611 19.2375c 7.3821,-5.3634 13.8741,-11.8554 19.2375 -19.2375"/>
  </g>
  <g stroke-linejoin="miter" stroke-opacity="1.0" fill-opacity="0.0" stroke="rgb(0,0,0)" stroke-width="0.5" fill="rgb(0,0,0)" stroke-linecap="butt" stroke-miterlimit="10.0">
    <path d="M 115.8231,92.2180 c -28.2282,38.8528 -19.6153,93.2328 19.2375 121.4611c 7.3821,5.3634 15.5625,9.5315 24.2407 12.3513"/>
  </g>
  <g stroke-linejoin="miter" stroke-opacity="1.0" fill-opacity="0.0" stroke="rgb(0,0,0)" stroke-width="0.5" fill="rgb(0,0,0)" stroke-linecap="butt" stroke-miterlimit="10.0">
    <path d="M 300.0000,226.0304 c -28.2282,-38.8528 -82.6082,-47.4658 -121.4611 -19.2375c -7.3821,5.3634 -13.8741,11.8554 -19.2375 19.2375"/>
  </g>
  <g stroke-linejoin="miter" stroke-opacity="1.0" fill-opacity="0.0" stroke="rgb(0,0,0)" stroke-width="0.5" fill="rgb(0,0,0)" stroke-linecap="butt" stroke-miterlimit="10.0">
    <path d="M 229.6507,277.1421 c 28.2282,-38.8528 19.6153,-93.2328 -19.2375 -121.4611c -7.3821,-5.3634 -15.5625,-9.5315 -24.2407 -12.3513"/>
  </g>
  <g stroke-linejoin="miter" stroke-opacity="1.0" fill-opacity="0.0" stroke="rgb(0,0,0)" stroke-width="0.5" fill="rgb(0,0,0)" stroke-linecap="butt" stroke-miterlimit="10.0">
    <path d="M 159.3014,226.0304 c 45.6743,14.8405 94.7311,-10.1553 109.5716 -55.8295c 2.8197,-8.6782 4.2560,-17.7462 4.2560 -26.8710"/>
  </g>
  <g stroke-linejoin="miter" stroke-opacity="1.0" fill-opacity="0.0" stroke="rgb(0,0,0)" stroke-width="0.5" fill="rgb(0,0,0)" stroke-linecap="butt" stroke-miterlimit="10.0">
    <path d="M 186.1724,143.3298 c -0.0000,48.0248 38.9318,86.9565 86.9565 86.9565c 9.1248,0.0000 18.1928,-1.4362 26.8710 -4.2560"/>
  </g>
  <g stroke-linejoin="miter" stroke-opacity="1.0" fill-opacity="0.0" stroke="rgb(0,0,0)" stroke-width="0.5" fill="rgb(0,0,0)" stroke-linecap="butt" stroke-miterlimit="10.0">
    <path d="M 273.1290,143.3298 c -45.6743,14.8405 -70.6700,63.8973 -55.8295 109.5716c 2.8197,8.6782 6.9878,16.8586 12.3513 24.2407"/>
  </g>
  <g stroke-linejoin="miter" stroke-opacity="1.0" fill-opacity="0.0" stroke="rgb(0,0,0)" stroke-width="0.5" fill="rgb(0,0,0)" stroke-linecap="butt" stroke-miterlimit="10.0">
    <path d="M 142.6942,277.1421 c -45.6743,-14.8405 -94.7311,10.1553 -109.5716 55.8295c -2.8197,8.6782 -4.2560,17.7462 -4.2560 26.8710"/>
  </g>
  <g stroke-linejoin="miter" stroke-opacity="1.0" fill-opacity="0.0" stroke="rgb(0,0,0)" stroke-width="0.5" fill="rgb(0,0,0)" stroke-linecap="butt" stroke-miterlimit="10.0">
    <path d="M 115.8231,359.8427 c 0.0000,-48.0248 -38.9318,-86.9565 -86.9565 -86.9565c -9.1248,-0.0000 -18.1928,1.4362 -26.8710 4.2560"/>
  </g>
  <g stroke-linejoin="miter" stroke-opacity="1.0" fill-opacity="0.0" stroke="rgb(0,0,0)" stroke-width="0.5" fill="rgb(0,0,0)" stroke-linecap="butt" stroke-miterlimit="10.0">
    <path d="M 28.8666,359.8427 c 45.6743,-14.8405 70.6700,-63.8973 55.8295 -109.5716c -2.8197,-8.6782 -6.9878,-16.8586 -12.3513 -24.2407"/>
  </g>
  <g stroke-linejoin="miter" stroke-opacity="1.0" fill-opacity="0.0" stroke="rgb(0,0,0)" stroke-width="0.5" fill="rgb(0,0,0)" stroke-linecap="butt" stroke-miterlimit="10.0">
    <path d="M 1.9956,277.1421 c 28.2282,38.8528 82.6082,47.4658 121.4611 19.2375c 7.3821,-5.3634 13.8741,-11.8554 19.2375 -19.2375"/>
  </g>
  <g stroke-linejoin="miter" stroke-opacity="1.0" fill-opacity="0.0" stroke="rgb(0,0,0)" stroke-width="0.5" fill="rgb(0,0,0)" stroke-linecap="butt" stroke-miterlimit="10.0">
    <path d="M 72.3449,226.0304 c -28.2282,38.8528 -19.6153,93.2328 19.2375 121.4611c 7.3821,5.3634 15.5625,9.5315 24.2407 12.3513"/>
  </g>
  <g stroke-linejoin="miter" stroke-opacity="1.0" fill-opacity="0.0" stroke="rgb(0,0,0)" stroke-width="0.5" fill="rgb(0,0,0)" stroke-linecap="butt" stroke-miterlimit="10.0">
    <path d="M 115.8231,359.8427 c -28.2282,38.8528 -19.6153,93.2328 19.2375 121.4611c 7.3821,5.3634 15.5625,9.5315 24.2407 12.3513"/>
  </g>
  <g stroke-linejoin="miter" stroke-opacity="1.0" fill-opacity="0.0" stroke="rgb(0,0,0)" stroke-width="0.5" fill="rgb(0,0,0)" stroke-linecap="butt" stroke-miterlimit="10.0">
    <path d="M 186.1724,410.9545 c -45.6743,-14.8405 -94.7311,10.1553 -109.5716 55.8295c -2.8197,8.6782 -4.2560,17.7462 -4.2560 26.8710"/>
  </g>
  <g stroke-linejoin="miter" stroke-opacity="1.0" fill-opacity="0.0" stroke="rgb(0,0,0)" stroke-width="0.5" fill="rgb(0,0,0)" stroke-linecap="butt" stroke-miterlimit="10.0">
    <path d="M 159.3014,493.6550 c -0.0000,-48.0248 -38.9318,-86.9565 -86.9565 -86.9565c -9.1248,0.0000 -18.1928,1.4362 -26.8710 4.2560"/>
  </g>
  <g stroke-linejoin="miter" stroke-opacity="1.0" fill-opacity="0.0" stroke="rgb(0,0,0)" stroke-width="0.5" fill="rgb(0,0,0)" stroke-linecap="butt" stroke-miterlimit="10.0">
    <path d="M 72.3449,493.6550 c 45.6743,-14.8405 70.6700,-63.8973 55.8295 -109.5716c -2.8197,-8.6782 -6.9878,-16.8586 -12.3513 -24.2407"/>
  </g>
  <g stroke-linejoin="miter" stroke-opacity="1.0" fill-opacity="0.0" stroke="rgb(0,0,0)" stroke-width="0.5" fill="rgb(0,0,0)" stroke-linecap="butt" stroke-miterlimit="10.0">
    <path d="M 45.4738,410.9545 c 28.2282,38.8528 82.6082,47.4658 121.4611 19.2375c 7.3821,-5.3634 13.8741,-11.8554 19.2375 -19.2375"/>
  </g>
  <g stroke-linejoin="miter" stroke-opacity="1.0" fill-opacity="0.0" stroke="rgb(0,0,0)" stroke-width="0.5" fill="rgb(0,0,0)" stroke-linecap="butt" stroke-miterlimit="10.0">
    <path d="M 229.6507,277.1421 c -45.6743,14.8405 -70.6700,63.8973 -55.8295 109.5716c 2.8197,8.6782 6.9878,16.8586 12.3513 24.2407"/>
  </g>
  <g stroke-linejoin="miter" stroke-opacity="1.0" fill-opacity="0.0" stroke="rgb(0,0,0)" stroke-width="0.5" fill="rgb(0,0,0)" stroke-linecap="butt" stroke-miterlimit="10.0">
    <path d="M 256.5217,359.8427 c -28.2282,-38.8528 -82.6082,-47.4658 -121.4611 -19.2375c -7.3821,5.3634 -13.8741,11.8554 -19.2375 19.2375"/>
  </g>
  <g stroke-linejoin="miter" stroke-opacity="1.0" fill-opacity="0.0" stroke="rgb(0,0,0)" stroke-width="0.5" fill="rgb(0,0,0)" stroke-linecap="butt" stroke-miterlimit="10.0">
    <path d="M 186.1724,410.9545 c 28.2282,-38.8528 19.6153,-93.2328 -19.2375 -121.4611c -7.3821,-5.3634 -15.5625,-9.5315 -24.2407 -12.3513"/>
  </g>
  <g stroke-linejoin="miter" stroke-opacity="1.0" fill-opacity="0.0" stroke="rgb(0,0,0)" stroke-width="0.5" fill="rgb(0,0,0)" stroke-linecap="butt" stroke-miterlimit="10.0">
    <path d="M 115.8231,359.8427 c 45.6743,14.8405 94.7311,-10.1553 109.5716 -55.8295c 2.8197,-8.6782 4.2560,-17.7462 4.2560 -26.8710"/>
  </g>
  <g stroke-linejoin="miter" stroke-opacity="1.0" fill-opacity="0.0" stroke="rgb(0,0,0)" stroke-width="0.5" fill="rgb(0,0,0)" stroke-linecap="butt" stroke-miterlimit="10.0">
    <path d="M 142.6942,277.1421 c 0.0000,48.0248 38.9318,86.9565 86.9565 86.9565c 9.1248,-0.0000 18.1928,-1.4362 26.8710 -4.2560"/>
  </g>
  <g stroke-linejoin="miter" stroke-opacity="1.0" fill-opacity="0.0" stroke="rgb(0,0,0)" stroke-width="0.5" fill="rgb(0,0,0)" stroke-linecap="butt" stroke-miterlimit="10.0">
    <path d="M 229.6507,442.5433 c -28.2282,38.8528 -19.6153,93.2328 19.2375 121.4611c 7.3821,5.3634 15.5625,9.5315 24.2407 12.3513"/>
  </g>
  <g stroke-linejoin="miter" stroke-opacity="1.0" fill-opacity="0.0" stroke="rgb(0,0,0)" stroke-width="0.5" fill="rgb(0,0,0)" stroke-linecap="butt" stroke-miterlimit="10.0">
    <path d="M 300.0000,493.6550 c -45.6743,-14.8405 -94.7311,10.1553 -109.5716 55.8295c -2.8197,8.6782 -4.2560,17.7462 -4.2560 26.8710"/>
  </g>
  <g stroke-linejoin="miter" stroke-opacity="1.0" fill-opacity="0.0" stroke="rgb(0,0,0)" stroke-width="0.5" fill="rgb(0,0,0)" stroke-linecap="butt" stroke-miterlimit="10.0">
    <path d="M 273.1290,576.3556 c -0.0000,-48.0248 -38.9318,-86.9565 -86.9565 -86.9565c -9.1248,0.0000 -18.1928,1.4362 -26.8710 4.2560"/>
  </g>
  <g stroke-linejoin="miter" stroke-opacity="1.0" fill-opacity="0.0" stroke="rgb(0,0,0)" stroke-width="0.5" fill="rgb(0,0,0)" stroke-linecap="butt" stroke-miterlimit="10.0">
    <path d="M 186.1724,576.3556 c 45.6743,-14.8405 70.6700,-63.8973 55.8295 -109.5716c -2.8197,-8.6782 -6.9878,-16.8586 -12.3513 -24.2407"/>
  </g>
  <g stroke-linejoin="miter" stroke-opacity="1.0" fill-opacity="0.0" stroke="rgb(0,0,0)" stroke-width="0.5" fill="rgb(0,0,0)" stroke-linecap="butt" stroke-miterlimit="10.0">
    <path d="M 159.3014,493.6550 c 28.2282,38.8528 82.6082,47.4658 121.4611 19.2375c 7.3821,-5.3634 13.8741,-11.8554 19.2375 -19.2375"/>
  </g>
  <g stroke-linejoin="miter" stroke-opacity="1.0" fill-opacity="0.0" stroke="rgb(0,0,0)" stroke-width="0.5" fill="rgb(0,0,0)" stroke-linecap="butt" stroke-miterlimit="10.0">
    <path d="M 300.0000,493.6550 c 28.2282,38.8528 82.6082,47.4658 121.4611 19.2375c 7.3821,-5.3634 13.8741,-11.8554 19.2375 -19.2375"/>
  </g>
  <g stroke-linejoin="miter" stroke-opacity="1.0" fill-opacity="0.0" stroke="rgb(0,0,0)" stroke-width="0.5" fill="rgb(0,0,0)" stroke-linecap="butt" stroke-miterlimit="10.0">
    <path d="M 370.3493,442.5433 c -28.2282,38.8528 -19.6153,93.2328 19.2375 121.4611c 7.3821,5.3634 15.5625,9.5315 24.2407 12.3513"/>
  </g>
  <g stroke-linejoin="miter" stroke-opacity="1.0" fill-opacity="0.0" stroke="rgb(0,0,0)" stroke-width="0.5" fill="rgb(0,0,0)" stroke-linecap="butt" stroke-miterlimit="10.0">
    <path d="M 440.6986,493.6550 c -45.6743,-14.8405 -94.7311,10.1553 -109.5716 55.8295c -2.8197,8.6782 -4.2560,17.7462 -4.2560 26.8710"/>
  </g>
  <g stroke-linejoin="miter" stroke-opacity="1.0" fill-opacity="0.0" stroke="rgb(0,0,0)" stroke-width="0.5" fill="rgb(0,0,0)" stroke-linecap="butt" stroke-miterlimit="10.0">
    <path d="M 413.8276,576.3556 c 0.0000,-48.0248 -38.9318,-86.9565 -86.9565 -86.9565c -9.1248,-0.0000 -18.1928,1.4362 -26.8710 4.2560"/>
  </g>
  <g stroke-linejoin="miter" stroke-opacity="1.0" fill-opacity="0.0" stroke="rgb(0,0,0)" stroke-width="0.5" fill="rgb(0,0,0)" stroke-linecap="butt" stroke-miterlimit="10.0">
    <path d="M 326.8710,576.3556 c 45.6743,-14.8405 70.6700,-63.8973 55.8295 -109.5716c -2.8197,-8.6782 -6.9878,-16.8586 -12.3513 -24.2407"/>
  </g>
  <g stroke-linejoin="miter" stroke-opacity="1.0" fill-opacity="0.0" stroke="rgb(0,0,0)" stroke-width="0.5" fill="rgb(0,0,0)" stroke-linecap="butt" stroke-miterlimit="10.0">
    <path d="M 256.5217,359.8427 c -0.0000,48.0248 38.9318,86.9565 86.9565 86.9565c 9.1248,0.0000 18.1928,-1.4362 26.8710 -4.2560"/>
  </g>
  <g stroke-linejoin="miter" stroke-opacity="1.0" fill-opacity="0.0" stroke="rgb(0,0,0)" stroke-width="0.5" fill="rgb(0,0,0)" stroke-linecap="butt" stroke-miterlimit="10.0">
    <path d="M 343.4783,359.8427 c -45.6743,14.8405 -70.6700,63.8973 -55.8295 109.5716c 2.8197,8.6782 6.9878,16.8586 12.3513 24.2407"/>
  </g>
  <g stroke-linejoin="miter" stroke-opacity="1.0" fill-opacity="0.0" stroke="rgb(0,0,0)" stroke-width="0.5" fill="rgb(0,0,0)" stroke-linecap="butt" stroke-miterlimit="10.0">
    <path d="M 370.3493,442.5433 c -28.2282,-38.8528 -82.6082,-47.4658 -121.4611 -19.2375c -7.3821,5.3634 -13.8741,11.8554 -19.2375 19.2375"/>
  </g>
  <g stroke-linejoin="miter" stroke-opacity="1.0" fill-opacity="0.0" stroke="rgb(0,0,0)" stroke-width="0.5" fill="rgb(0,0,0)" stroke-linecap="butt" stroke-miterlimit="10.0">
    <path d="M 300.0000,493.6550 c 28.2282,-38.8528 19.6153,-93.2328 -19.2375 -121.4611c -7.3821,-5.3634 -15.5625,-9.5315 -24.2407 -12.3513"/>
  </g>
  <g stroke-linejoin="miter" stroke-opacity="1.0" fill-opacity="0.0" stroke="rgb(0,0,0)" stroke-width="0.5" fill="rgb(0,0,0)" stroke-linecap="butt" stroke-miterlimit="10.0">
    <path d="M 229.6507,442.5433 c 45.6743,14.8405 94.7311,-10.1553 109.5716 -55.8295c 2.8197,-8.6782 4.2560,-17.7462 4.2560 -26.8710"/>
  </g>
  <g stroke-linejoin="miter" stroke-opacity="1.0" fill-opacity="0.0" stroke="rgb(0,0,0)" stroke-width="0.5" fill="rgb(0,0,0)" stroke-linecap="butt" stroke-miterlimit="10.0">
    <path d="M 343.4783,359.8427 c 0.0000,-48.0248 -38.9318,-86.9565 -86.9565 -86.9565c -9.1248,-0.0000 -18.1928,1.4362 -26.8710 4.2560"/>
  </g>
  <g stroke-linejoin="miter" stroke-opacity="1.0" fill-opacity="0.0" stroke="rgb(0,0,0)" stroke-width="0.5" fill="rgb(0,0,0)" stroke-linecap="butt" stroke-miterlimit="10.0">
    <path d="M 256.5217,359.8427 c 45.6743,-14.8405 70.6700,-63.8973 55.8295 -109.5716c -2.8197,-8.6782 -6.9878,-16.8586 -12.3513 -24.2407"/>
  </g>
  <g stroke-linejoin="miter" stroke-opacity="1.0" fill-opacity="0.0" stroke="rgb(0,0,0)" stroke-width="0.5" fill="rgb(0,0,0)" stroke-linecap="butt" stroke-miterlimit="10.0">
    <path d="M 229.6507,277.1421 c 28.2282,38.8528 82.6082,47.4658 121.4611 19.2375c 7.3821,-5.3634 13.8741,-11.8554 19.2375 -19.2375"/>
  </g>
  <g stroke-linejoin="miter" stroke-opacity="1.0" fill-opacity="0.0" stroke="rgb(0,0,0)" stroke-width="0.5" fill="rgb(0,0,0)" stroke-linecap="butt" stroke-miterlimit="10.0">
    <path d="M 300.0000,226.0304 c -28.2282,38.8528 -19.6153,93.2328 19.2375 121.4611c 7.3821,5.3634 15.5625,9.5315 24.2407 12.3513"/>
  </g>
  <g stroke-linejoin="miter" stroke-opacity="1.0" fill-opacity="0.0" stroke="rgb(0,0,0)" stroke-width="0.5" fill="rgb(0,0,0)" stroke-linecap="butt" stroke-miterlimit="10.0">
    <path d="M 370.3493,277.1421 c -45.6743,-14.8405 -94.7311,10.1553 -109.5716 55.8295c -2.8197,8.6782 -4.2560,17.7462 -4.2560 26.8710"/>
  </g>
</svg>